#!OML:ASF F:\VICON\USERDATA\INSTALL\rory3\rory3.ASF
:FULLY-SPECIFIED
:DEGREES
9
root -0.0009618766517300315 18.057093489802334 -22.74338611089832 3.403189137382596 1.6361572122381913 -4.5218386355778115
lfemur -40.11908822595925 -1.6622077825624615 -16.61061096921587
ltibia 50.04360022183722
lfoot -5.170345899179647 -9.397311687553238
ltoes -11.15049800422643
rfemur 12.70728632018385 3.2784760557375763 31.200193755257885
rtibia 31.82481061427354
rfoot 16.779088368789306 -1.1359290407114964
rtoes -4.687807931236607
lowerback 11.48731153555304 2.2525913701516322 6.147068023656124
upperback -1.3306785062447573 4.020959754820384 1.9309137245748107
thorax -7.596478548522489 1.73940020806801 -2.113700813793132
lowerneck -14.929023221301989 -5.161260013532678 -2.6573483062981134
upperneck 15.15958697383354 -7.037630370147161 3.2963489928927316
head 7.322410590451601 -3.2189393203469434 0.7522155480681587
lclavicle 3.0724235556244827e-16 -4.306756172746383e-16
lhumerus -67.48018630285343 -6.676974493611604 97.74520019560782
lradius 107.5980073581558
lwrist 32.06049460818341
lhand -26.367595625203673 3.6777482117265587
lfingers 7.125020000000001
lthumb 0.19068537505412875 33.657398183748896
rclavicle 3.0724235556244827e-16 -4.306756172746383e-16
rhumerus -33.199109462411485 11.500590410882907 -94.46300933944138
rradius 109.7309822400873
rwrist -18.49850780438436
rhand -19.9118908073721 38.54009866326891
rfingers 7.125020000000001
rthumb 6.424879192347571 8.657578851441246
10
root 0.03115852815726422 18.2146908609527 -21.754586531072157 3.59059796502293 2.1384557746279094 -4.029460494602968
lfemur -38.63828894480885 -2.993083627146934 -17.05031014150795
ltibia 40.99600438412796
lfoot -3.04584711352783 -11.352098800890602
ltoes -8.718280666741805
rfemur 14.654785422886693 4.6620718067523015 30.953294221475392
rtibia 30.713211143770742
rfoot 24.528882858742257 -0.8998184765641959
rtoes -0.24017478731109065
lowerback 10.97141406726993 2.549729528938095 6.0787881991206065
upperback -1.2613895448891945 4.320928554857184 1.3989583623160953
thorax -7.1651041924002525 1.8944987868331271 -2.654498634664454
lowerneck -16.109315304521 -5.442767593617365 -2.4002434319554418
upperneck 15.75838203621129 -7.553787477180253 3.652805987837524
head 7.745587462784278 -3.388367168483509 0.7308891548145727
lclavicle 3.072421775115744e-16 -4.3067564145258236e-16
lhumerus -68.01468590896509 -6.835954123779212 97.00170358236811
lradius 108.1820058916781
lwrist 32.17839390648471
lhand -26.434695106313004 3.7866676476783945
lfingers 7.125020000000001
lthumb 0.12590789372465694 33.766397618371556
rclavicle 3.072421775115744e-16 -4.3067564145258236e-16
rhumerus -33.37390932623059 10.924592129851305 -94.35990989288
rradius 109.53998271153714
rwrist -17.578614976791144
rhand -18.33620497467129 45.51386190405329
rfingers 7.125020000000001
rthumb 7.945865024761682 15.68316190894275
11
root 0.05738500079422151 18.273689876802138 -20.8031869353535 3.8424863893029793 2.9573034310340756 -4.34078931914843
lfemur -37.602289447731714 -4.0881602079713355 -16.665810865305296
ltibia 33.861807666171174
lfoot -0.516232559437233 -11.70409828108783
ltoes -7.853271613655499
rfemur 15.288485130913767 5.889098038587796 31.965492310153593
rtibia 32.031510515814496
rfoot 28.214980237954 -0.5253041679058619
rtoes 11.097888382647904
lowerback 10.930614267491 2.505279804370356 6.420167321849603
upperback -1.6432538207276866 4.326708531735592 1.3921984212512248
thorax -7.529149429421672 1.8622690821677519 -2.8618777990362987
lowerneck -16.323113870472213 -5.7148252549361125 -2.3898436392862967
upperneck 16.214978271150645 -7.930475365913002 3.564666730881809
head 7.941811375584304 -3.563794940416453 0.6439266289413563
lclavicle 3.072422923294333e-16 -4.306756435249602e-16
lhumerus -68.91578524491874 -6.32253531813915 96.71250489971993
lradius 108.78700437246745
lwrist 31.983195068245422
lhand -26.440095064554296 3.6395884093402016
lfingers 7.125020000000001
lthumb 0.12069493546459142 33.619298381371614
rclavicle 3.072422923294333e-16 -4.306756435249602e-16
rhumerus -33.91210890693689 11.083891654449111 -94.27451035130541
rradius 108.95898414563332
rwrist -17.68011418540155
rhand -17.982508154828505 46.273757898585984
rfingers 7.125020000000001
rthumb 8.287181845484618 16.45625784378617
12
root 0.08216074132345738 18.256490163707046 -19.852887339167403 3.9226658877299663 3.246572603127386 -4.919817132968367
lfemur -36.490489987451326 -3.882970848637444 -16.482011211297397
ltibia 29.368809733147135
lfoot -0.10717979324883053 -9.901380943186817
ltoes -17.564590982805708
rfemur 15.106385214815223 7.1458641790928485 33.19848998189855
rtibia 35.1632090240673
rfoot 27.49488074993945 -1.80746780107203
rtoes 15.401684651279277
lowerback 10.775815027153294 2.4506801426965956 6.69677661102317
upperback -1.9581491004342362 4.317128570058244 1.6347663064739797
thorax -7.783216105345398 1.8355593269207056 -2.757798218421857
lowerneck -15.529019196843304 -5.5770564392341235 -2.719297071284027
upperneck 16.05297960698031 -7.731046483675693 3.8777340916161576
head 7.770176699984262 -3.47449607458044 0.8457948856898155
lclavicle 3.072422772775832e-16 -4.30675689117533e-16
lhumerus -69.73378464211115 -5.397977468926823 96.73190481134985
lradius 109.49800258708105
lwrist 31.04540064969623
lhand -25.408903038921757 3.3052801405827803
lfingers 7.125020000000001
lthumb 1.1166569608391552 33.282100130410484
rclavicle 3.072422772775832e-16 -4.30675689117533e-16
rhumerus -35.05890801350321 11.773089597655668 -94.50940909036717
rradius 108.45698538473188
rwrist -17.562115105440686
rhand -18.339404945899723 45.47036213334376
rfingers 7.125020000000001
rthumb 7.942725054009689 15.639562138202646
13
root 0.0876701834891008 18.222690727508553 -18.923487734100227 3.767506858346933 2.61131442127652 -5.576314654293333
lfemur -35.71079036595419 -2.5628749703944957 -16.3664114289072
ltibia 27.61061054199583
lfoot 1.0376405523801253 -7.890953912013739
ltoes -16.60519203304674
rfemur 14.511385488957234 8.54097989473006 34.24818799976606
rtibia 39.410507000917534
rfoot 25.111882444233814 -3.689024327777748
rtoes 16.391383793215297
lowerback 11.079513536782247 2.832957773917193 6.927886017121673
upperback -1.732692480038433 4.869946358624943 1.6319263312337078
thorax -7.644687917776172 2.103146874901089 -2.9875072928159936
lowerneck -16.370913549857 -5.646605841368649 -2.333494762660691
upperneck 15.821381516721983 -7.908565488713888 3.9603733949383746
head 7.834584701938344 -3.5170055346777396 0.7705600261587028
lclavicle 3.072423282571582e-16 -4.3067557997166366e-16
lhumerus -69.17488505398055 -5.691436786255997 96.9419038547666
lradius 110.18700085693867
lwrist 30.005806837024295
lhand -24.780607897625284 3.3840797325126797
lfingers 7.125020000000001
lthumb 1.7234321024164894 33.356899742426776
rclavicle 3.072423282571582e-16 -4.3067557997166366e-16
rhumerus -34.84690817866533 11.459390533836906 -94.55940882196822
rradius 107.53798765312149
rwrist -17.32251697358794
rhand -17.706410637275226 42.91947557925318
rfingers 7.125020000000001
rthumb 8.553709362850388 13.112675425286131
14
root 0.09236536376108714 18.09899279088863 -17.993788129160485 3.401029150894665 2.495194753618363 -5.573374665393565
lfemur -35.34669054270542 -1.538298169447483 -17.09131006432799
ltibia 28.464310149256672
lfoot 1.351860372774346 -8.025293713632195
ltoes -16.748891875740473
rfemur 13.241386074101026 8.589609745389094 34.27198795482489
rtibia 44.987604344333775
rfoot 22.55608426138758 -6.524339093875698
rtoes 15.274284761734284
lowerback 11.336912273622861 2.9780768746881803 6.411527344052503
upperback -1.6128842759684368 5.00188583082834 1.5774768059404778
thorax -7.6852473871171645 2.1890960873115457 -2.794038072394454
lowerneck -15.861416967293177 -5.728255139489195 -2.203467354894452
upperneck 15.127587237701128 -8.054954668229108 4.127411986745528
head 7.524114333257964 -3.585124669512553 0.8089539338330796
lclavicle 3.072420055873596e-16 -4.3067569188076136e-16
lhumerus -68.58728548699978 -6.044895964008198 97.67310052403475
lradius 110.69099959134832
lwrist 29.032912627377783
lhand -25.286903982359334 3.0400615140390235
lfingers 7.125020000000001
lthumb 1.2344960173068604 33.01620150961996
rclavicle 3.072420055873596e-16 -4.3067569188076136e-16
rhumerus -35.32670780486913 11.092191629679256 -94.74380783211292
rradius 106.29499072124807
rwrist -17.690014108211823
rhand -17.58521172699831 39.991891010765364
rfingers 7.125020000000001
rthumb 8.670638273688112 10.189990793586771
15
root 0.09256615436436166 17.95899512616115 -17.087488514277233 2.686773619010641 3.4464720310025707 -4.809397549869053
lfemur -34.24489107757062 -1.159319352739271 -18.642807143725598
ltibia 30.825109063185625
lfoot 1.3823103553693534 -10.136400596129869
ltoes -18.121690372956564
rfemur 11.309086964394801 7.043484493498106 33.14059009123023
rtibia 51.40000128986496
rfoot 19.754186253516483 -8.659025153312248
rtoes 11.555087986258256
lowerback 11.9643091947332 2.6639888209315674 5.35450006038546
upperback -1.2333499652036712 4.446358053102408 1.4187381898698168
thorax -7.744376613501112 1.9643581466818116 -2.3116100163239084
lowerneck -15.63831846372107 -5.573436470352353 -2.326514901811591
upperneck 14.275894260701914 -7.838855879423595 4.489438934733702
head 7.220813742158873 -3.475766058450671 0.9861408927766436
lclavicle 3.0724223688711057e-16 -4.30675659413306e-16
lhumerus -67.32608641641411 -6.721504390022251 98.59449632691177
lradius 111.29399807715986
lwrist 28.929613242182498
lhand -25.765300282846734 2.6952132998635676
lfingers 7.125020000000001
lthumb 0.7724597168118004 32.67360328666835
rclavicle 3.0724223688711057e-16 -4.30675659413306e-16
rhumerus -35.477607687307945 10.70269279207195 -94.69260810695346
rradius 104.89499417690146
rwrist -20.694690680740727
rhand -17.593211655069393 37.46790431488366
rfingers 7.125020000000001
rthumb 8.662888345876668 7.665644067314287
16
root 0.07298067093819335 17.777898147002958 -16.181288899351635 1.629210234732386 4.0746902330023085 -4.389349135805775
lfemur -33.285291543405286 -0.5608662212993186 -19.57690538534036
ltibia 35.6859068270056
lfoot -2.014987702759605 -12.19649755395465
ltoes -7.037612506546473
rfemur 9.208267932333154 5.60741890361683 32.34099160110269
rtibia 58.27279801609022
rfoot 17.431287905080218 -9.897412867287393
rtoes 11.710787851267327
lowerback 13.044003896235962 2.4336602481601943 4.370142589972636
upperback -0.7316104862994994 4.027069730378689 1.310679131960055
thorax -7.90436452030253 1.799799654601945 -1.849761877327203
lowerneck -15.851917031013777 -5.556716614080762 -2.3184950616955793
upperneck 13.836197886407497 -7.862425747318763 4.891445545679545
head 7.132996466400334 -3.45469632605241 1.11087234410529
lclavicle 3.0724227576480644e-16 -4.3067567564699026e-16
lhumerus -65.32678788975558 -8.046831306930372 99.59499176947575
lradius 111.47999761009675
lwrist 28.56681540143858
lhand -26.870791733910316 2.2984453545586665
lfingers 7.125020000000001
lthumb -0.29531073359577054 32.278005338624986
rclavicle 3.0724227576480644e-16 -4.3067567564699026e-16
rhumerus -35.452407706940434 10.80549248528384 -94.94480675314918
rradius 102.48800011815698
rwrist -21.34288562676304
rhand -16.0033259500424 37.06240645229252
rfingers 7.125020000000001
rthumb 10.1968740572003 7.329495834876562
